<svg width="1416" height="305" viewBox="0 0 1416 305" fill="none" xmlns="http://www.w3.org/2000/svg">
<path d="M1408.64 52.1863L1410.6 57.2896L1416 59.1445L1410.6 60.9994L1408.64 66.1027L1406.67 60.9994L1401.28 59.1445L1406.67 57.2896L1408.64 52.1863Z" fill="#FFD3E9"/>
<path d="M213.504 305L211.532 297.586L203.687 295.722L211.532 293.859L213.504 286.445L215.475 293.859L223.32 295.722L215.475 297.586L213.504 305Z" fill="#DE75CB"/>
<path d="M898.19 33.6312L900.474 40.7504L908.007 42.9087L900.474 45.067L898.19 52.1863L895.907 45.067L888.374 42.9087L895.907 40.7504L898.19 33.6312Z" fill="#F6A5CD"/>
<path d="M29.4489 33.6312L37.0703 54.2607L58.8977 61.4639L37.0703 68.667L29.4489 89.2966L21.8275 68.667L0 61.4639L21.8275 54.2607L29.4489 33.6312Z" fill="#DE75CB"/>
<path d="M282.218 289.924L277.137 276.171L262.585 271.369L277.137 266.567L282.218 252.814L287.298 266.567L301.85 271.369L287.298 276.171L282.218 289.924Z" fill="#E563FA"/>
<path d="M1051.57 0L1053.03 3.25785L1056.48 4.63878L1053.03 6.01971L1051.57 9.27757L1050.11 6.01971L1046.66 4.63878L1050.11 3.25785L1051.57 0Z" fill="#FFD3E9"/>
<path d="M1296.98 253.973L1298.44 257.231L1301.89 258.612L1298.44 259.993L1296.98 263.251L1295.52 259.993L1292.07 258.612L1295.52 257.231L1296.98 253.973Z" fill="#FFD3E9"/>
<path d="M1363.24 86.9772L1368.32 100.73L1382.87 105.532L1368.32 110.334L1363.24 124.087L1358.16 110.334L1343.61 105.532L1358.16 100.73L1363.24 86.9772Z" fill="#F6A5CD"/>
</svg>
