<svg width="420" height="23" viewBox="0 0 420 23" fill="none" xmlns="http://www.w3.org/2000/svg">
<path d="M0.232287 15.4497L10.3197 22.3955L17.2655 12.3081L7.17814 5.36229L0.232287 15.4497ZM53.4305 9.1211L53.5046 7.62293L53.5045 7.62293L53.4305 9.1211ZM98.1114 13.8789L98.0916 12.379L98.1114 13.8789ZM187.475 13.8789L187.476 15.3789L187.475 13.8789ZM232.156 9.1211L232.155 7.6211L232.156 9.1211ZM321.519 9.1211L321.539 10.621L321.519 9.1211ZM366.2 13.8789L366.126 15.3771L366.126 15.3771L366.2 13.8789ZM419.398 7.55034L409.311 0.604486L402.365 10.6919L412.452 17.6377L419.398 7.55034ZM9.02096 15.354C23.9463 12.6013 38.6663 9.89344 53.3565 10.6193L53.5045 7.62293C38.406 6.87692 23.3388 9.66272 8.47684 12.4038L9.02096 15.354ZM53.3565 10.6193C60.709 10.9826 68.0635 12.2054 75.5475 13.3331C82.9951 14.4553 90.5498 15.479 98.1313 15.3788L98.0916 12.379C90.7794 12.4757 83.4405 11.4885 75.9945 10.3666C68.5848 9.25009 61.0456 7.99555 53.5046 7.62293L53.3565 10.6193ZM98.1313 15.3788C105.706 15.2786 113.264 14.0559 120.686 12.8885C128.148 11.7148 135.479 10.5957 142.788 10.6211L142.798 7.62111C135.213 7.59472 127.651 8.756 120.219 9.92493C112.747 11.1002 105.411 12.2822 98.0916 12.379L98.1313 15.3788ZM142.788 10.6211C150.099 10.6465 157.429 11.8169 164.898 13.0047C172.325 14.1859 179.89 15.3842 187.476 15.3789L187.474 12.3789C180.165 12.384 172.836 11.2293 165.369 10.0419C157.944 8.86117 150.381 7.64749 142.798 7.62111L142.788 10.6211ZM187.476 15.3789C195.061 15.3736 202.625 14.1648 210.051 12.9813C217.519 11.7911 224.848 10.6262 232.157 10.6211L232.155 7.6211C224.569 7.62639 217.005 8.83517 209.579 10.0187C202.111 11.2089 194.782 12.3738 187.474 12.3789L187.476 15.3789ZM232.157 10.6211C239.465 10.616 246.795 11.7707 254.261 12.9581C261.686 14.1388 269.249 15.3525 276.832 15.3789L276.842 12.3789C269.532 12.3535 262.201 11.1831 254.732 9.99529C247.305 8.81412 239.741 7.61581 232.155 7.6211L232.157 10.6211ZM276.832 15.3789C284.417 15.4053 291.979 14.244 299.411 13.0751C306.883 11.8998 314.219 10.7178 321.539 10.621L321.499 7.62123C313.924 7.72139 306.367 8.94414 298.945 10.1115C291.483 11.2852 284.151 12.4043 276.842 12.3789L276.832 15.3789ZM321.539 10.621C328.851 10.5243 336.19 11.5115 343.636 12.6334C351.046 13.7499 358.585 15.0045 366.126 15.3771L366.274 12.3807C358.921 12.0174 351.567 10.7946 344.083 9.66691C336.635 8.54471 329.08 7.52097 321.499 7.62123L321.539 10.621ZM366.126 15.3771C381.224 16.1231 396.292 13.3373 411.153 10.5962L410.609 7.64598C395.684 10.3987 380.964 13.1066 366.274 12.3807L366.126 15.3771Z" fill="#943C75"/>
</svg>
