<svg width="1920" height="51" viewBox="0 0 1920 51" fill="none" xmlns="http://www.w3.org/2000/svg">
<path d="M1920 4.05937C1874.29 28.42 1828.57 52.7806 1782.86 46.2534C1737.14 39.7262 1691.43 2.31049 1645.71 4.05937C1600 5.80825 1554.29 46.7217 1508.57 46.2534C1462.86 45.7851 1417.14 3.93419 1371.43 4.05937C1325.71 4.18455 1280 46.2866 1234.29 46.2534C1188.57 46.2203 1142.86 4.05127 1097.14 4.05937C1051.43 4.06747 1005.71 46.2534 960 46.2534C914.285 46.2534 868.571 4.06747 822.856 4.05937C777.144 4.05127 731.43 46.2203 685.715 46.2534C640 46.2866 594.285 4.18455 548.57 4.05937C502.856 3.93419 457.144 45.7851 411.43 46.2534C365.715 46.7217 320 5.80825 274.285 4.05937C228.571 2.31049 182.856 39.7262 137.144 46.2534C91.4297 52.7806 45.7148 28.42 0 4.05937" fill="#EC81C7"/>
<path d="M1920 4.05937C1874.29 28.42 1828.57 52.7806 1782.86 46.2534C1737.14 39.7262 1691.43 2.31049 1645.71 4.05937C1600 5.80825 1554.29 46.7217 1508.57 46.2534C1462.86 45.7851 1417.14 3.93418 1371.43 4.05937C1325.71 4.18455 1280 46.2866 1234.29 46.2534C1188.57 46.2203 1142.86 4.05127 1097.14 4.05937C1051.43 4.06747 1005.71 46.2534 960 46.2534C914.285 46.2534 868.571 4.06747 822.856 4.05937C777.144 4.05127 731.43 46.2203 685.715 46.2534C640 46.2866 594.285 4.18455 548.57 4.05937C502.856 3.93418 457.144 45.7851 411.43 46.2534C365.715 46.7217 320 5.80825 274.285 4.05937C228.57 2.31049 182.856 39.7262 137.144 46.2534C91.4296 52.7806 45.7148 28.42 4.86374e-05 4.05937" stroke="#FCBADB" stroke-width="7"/>
</svg>
