<svg width="5" height="6" viewBox="0 0 5 6" fill="none" xmlns="http://www.w3.org/2000/svg">
<path d="M2.40252 0.425935C2.42623 0.322347 2.57377 0.322347 2.59748 0.425934L3.01757 2.26151C3.02548 2.29605 3.05107 2.32383 3.08485 2.33453L4.69904 2.84584C4.79211 2.87533 4.79211 3.00703 4.69904 3.03651L3.08485 3.54782C3.05107 3.55852 3.02548 3.5863 3.01757 3.62085L2.59748 5.45642C2.57377 5.56001 2.42623 5.56001 2.40252 5.45642L1.98243 3.62085C1.97452 3.5863 1.94893 3.55852 1.91515 3.54782L0.300956 3.03651C0.207886 3.00703 0.207886 2.87533 0.300956 2.84584L1.91515 2.33453C1.94893 2.32383 1.97452 2.29605 1.98243 2.26151L2.40252 0.425935Z" fill="#541B40"/>
</svg>
