<svg width="10" height="12" viewBox="0 0 10 12" fill="none" xmlns="http://www.w3.org/2000/svg">
<path d="M4.85378 0.638902C4.88934 0.483521 5.11066 0.48352 5.14622 0.638901L6.04152 4.55089C6.05338 4.6027 6.09177 4.64437 6.14244 4.66042L9.54857 5.73936C9.68817 5.78358 9.68817 5.98113 9.54857 6.02535L6.14244 7.10428C6.09177 7.12033 6.05338 7.162 6.04152 7.21382L5.14622 11.1258C5.11066 11.2812 4.88934 11.2812 4.85378 11.1258L3.95848 7.21382C3.94662 7.162 3.90823 7.12033 3.85756 7.10428L0.451434 6.02535C0.311829 5.98113 0.311829 5.78358 0.451434 5.73936L3.85756 4.66042C3.90823 4.64437 3.94662 4.6027 3.95848 4.55089L4.85378 0.638902Z" fill="#541B40"/>
</svg>
