<svg width="17" height="20" viewBox="0 0 17 20" fill="none" xmlns="http://www.w3.org/2000/svg">
<path d="M8.30504 0.851868C8.35245 0.644693 8.64755 0.644693 8.69496 0.851868L10.2776 7.76718C10.2934 7.83626 10.3446 7.89182 10.4122 7.91322L16.3981 9.80934C16.5842 9.8683 16.5842 10.1317 16.3981 10.1907L10.4122 12.0868C10.3446 12.1082 10.2934 12.1637 10.2776 12.2328L8.69496 19.1481C8.64755 19.3553 8.35245 19.3553 8.30504 19.1481L6.7224 12.2328C6.70659 12.1637 6.65539 12.1082 6.58783 12.0868L0.601912 10.1907C0.415772 10.1317 0.415772 9.8683 0.601912 9.80934L6.58783 7.91322C6.65539 7.89182 6.70659 7.83626 6.7224 7.76718L8.30504 0.851868Z" fill="#541B40"/>
</svg>
