<svg width="16" height="12" viewBox="0 0 16 12" fill="none" xmlns="http://www.w3.org/2000/svg">
<path d="M1.5 0C0.671573 0 0 0.671572 0 1.5V10.5C0 11.3284 0.671573 12 1.5 12H1.69098L3.55279 8.27639C3.63748 8.107 3.81061 8 4 8H12C12.1894 8 12.3625 8.107 12.4472 8.27639L14.309 12H14.5C15.3284 12 16 11.3284 16 10.5V1.5C16 0.671573 15.3284 0 14.5 0H1.5ZM4 5C3.44772 5 3 4.55228 3 4C3 3.44772 3.44772 3 4 3C4.55228 3 5 3.44772 5 4C5 4.55228 4.55228 5 4 5ZM12 5C11.4477 5 11 4.55228 11 4C11 3.44772 11.4477 3 12 3C12.5523 3 13 3.44772 13 4C13 4.55228 12.5523 5 12 5ZM6 4C6 3.44772 6.44771 3 7 3H9C9.55228 3 10 3.44772 10 4C10 4.55228 9.55228 5 9 5H7C6.44771 5 6 4.55228 6 4Z" fill="#F6D4EA"/>
<path d="M13.191 12L11.691 9H4.30902L2.80902 12H13.191Z" fill="#F6D4EA"/>
</svg>
