<svg width="27" height="30" viewBox="0 0 27 30" fill="none" xmlns="http://www.w3.org/2000/svg">
<path d="M2.5 2C1.39543 2 0.5 2.89543 0.5 4V6C0.5 7.10457 1.39543 8 2.5 8H3.5V26C3.5 28.2091 5.29086 30 7.5 30H19.5C21.7091 30 23.5 28.2091 23.5 26V8H24.5C25.6046 8 26.5 7.10457 26.5 6V4C26.5 2.89543 25.6046 2 24.5 2H17.5C17.5 0.895431 16.6046 0 15.5 0H11.5C10.3954 0 9.5 0.895431 9.5 2H2.5ZM8.5 10C9.05229 10 9.5 10.4477 9.5 11V25C9.5 25.5523 9.05228 26 8.5 26C7.94772 26 7.5 25.5523 7.5 25L7.5 11C7.5 10.4477 7.94772 10 8.5 10ZM13.5 10C14.0523 10 14.5 10.4477 14.5 11V25C14.5 25.5523 14.0523 26 13.5 26C12.9477 26 12.5 25.5523 12.5 25V11C12.5 10.4477 12.9477 10 13.5 10ZM19.5 11V25C19.5 25.5523 19.0523 26 18.5 26C17.9477 26 17.5 25.5523 17.5 25V11C17.5 10.4477 17.9477 10 18.5 10C19.0523 10 19.5 10.4477 19.5 11Z" fill="#7A3362"/>
</svg>
